<?xml version="1.0" encoding="utf-8" ?>
<svg xmlns="http://www.w3.org/2000/svg" xmlns:xlink="http://www.w3.org/1999/xlink" width="20" height="20">
	<path fill="#3D0264" transform="matrix(0.0390625 0 0 0.0390625 -3.8147e-06 0)" d="M397.43 441.779L373.817 456.291C344.586 472.117 312.281 481.508 279.248 484.729L268.252 485.776L243.276 485.751C149.425 480.86 66.596 424.213 28.4841 338.153L24.7231 329.128C24.3244 328.071 24.2212 326.792 23.6507 325.827L23.4028 325.435C25.1857 325.202 27.1825 325.373 28.9873 325.379L85.2977 325.394C90.0592 325.379 90.6644 326.547 88.1527 321.988C74.643 297.469 67.1072 270.026 65.3803 242.108L65.1922 228.875C65.1832 221.858 65.1245 214.886 65.7795 207.891C69.8311 164.62 89.0482 120.178 119.46 88.6673L126.495 81.596C132.156 76.1874 131.854 76.3038 135.376 69.3385L141.487 58.1562C148.072 46.7853 155.773 36.0329 161.977 24.4576L234.811 101.424C240.93 107.626 247.537 113.906 255.381 117.855C267.517 114.386 281.535 97.2934 289.843 88.2716L339.073 35.4756C342.325 32.0458 346.348 28.5065 349.025 24.6293L349.226 24.3324C349.989 24.7337 351.32 27.367 351.904 28.236L364.393 48.255C369.105 55.8612 374.774 63.5111 377.929 71.9495C380.824 79.6956 378.435 75.4402 384.894 81.4304C447.483 139.482 463.419 236.221 428.628 313.066L424.625 321.735C424.155 322.777 423.957 324.135 423.225 325.003L485.052 325.452C489.079 325.467 488.997 324.719 487.3 328.854L473.875 356.489C454.549 392.799 430.348 417.835 397.43 441.779ZM339.586 126.526L262.935 220.98C260.786 223.63 258.059 226.449 256.4 229.417L170.613 127.369C145.486 151.262 129.149 185.157 128.265 220.036C127.385 254.752 130.066 266.54 147.172 296.401L186.23 361.185C187.017 362.546 187.449 364.035 188.209 365.372L121.701 365.243C120.631 365.185 119.612 364.886 118.554 364.817C125.311 370.592 131.518 376.783 138.574 382.246C159.607 398.533 188.369 412.371 214.062 417.955L232.423 421.277C237.175 421.914 242.005 422.235 246.72 423.097L217.695 367.864L144.42 236.163C141.057 230.355 140.593 229.468 140.622 222.679L140.694 210.718L173.375 210.712L205.89 210.809C207.138 213.311 208.115 215.913 209.412 218.436L256.443 314.568L298.726 225.042C299.87 222.788 304.96 211.763 305.925 210.754L370.763 210.724L370.74 220.574C370.667 228.983 368.676 232.749 364.561 239.908L276.625 400.242L265.258 422.77C307.048 418.494 340.751 407.227 374.769 380.758L386.18 371.316C387.709 370.002 389.564 368.675 390.875 367.166L391.509 366.28C391.824 365.848 392.242 365.683 392.682 365.417L323.445 365.09C324.226 364.293 324.54 363.252 325.073 362.299L363.062 299.854C366.507 293.849 370.675 287.883 373.622 281.641C384.229 259.179 385.566 231.559 382.033 207.151C377.66 176.944 363.286 148.508 340.888 127.654L339.586 126.526Z"/>
</svg>
